<svg xmlns="http://www.w3.org/2000/svg" viewBox="0 0 24 24" fill="none" stroke="currentColor" stroke-width="2" stroke-linecap="round" stroke-linejoin="round">
  <defs>
    <linearGradient id="flameGradient" x1="0%" y1="100%" x2="100%" y2="0%">
      <stop offset="0%" style="stop-color:#f43f5e"/>
      <stop offset="100%" style="stop-color:#e11d48"/>
    </linearGradient>
  </defs>
  <path fill="url(#flameGradient)" stroke="none" d="M12 2c1.5 2.5 4 4.5 4 8 0 3-2 5-4 5s-4-2-4-5c0-1 .5-2 1-3-.5 1.5-.5 3 1 4 0-2 2-3 2-3s2 1.5 2 4c1-1.5 1-3 0-5-.5 1-1.5 2-3 2 1-2 1-4 1-7z"/>
</svg>
